# xmcd
#
# Track frame offsets:
#	150
#	13857
#	27662
#	42005
#	55125
#	68740
#	82957
#	97445
#	110110
#	123235
#	134850
#	147590
#	158937
#	172742
#	185072
#	197805
#	209040
#	220425
#	233707
#	247487
#	261600
#
# Disc length: 3666 seconds
# Revision: 1
# Processed by: cddbd v1.5.2PL0 Copyright (c) Steve Scherf et al.
# Submitted via: dBpowerAMP V12.0
#
DISCID=5b0e5015
DTITLE=Various Artist - The Complete Recorded Works In Chronological Order (1927-1929)
DYEAR=1991
DGENRE=Blues
TTITLE0=William Harris - I'm Leavin' Town
TTITLE1=William Harris - Kansas City Blues
TTITLE2=William Harris - Kitchen Range Blues
TTITLE3=William Harris - Keep Your Man Out Of Birmingham
TTITLE4=William Harris - Electric Chair Blues
TTITLE5=William Harris - Bullfrog Blues
TTITLE6=William Harris - Leavin' Here Blues
TTITLE7=William Harris - Early Mornin' Blues
TTITLE8=William Harris - Hot Time Blues
TTITLE9=Buddy Boy Hawkins - Shaggy Dog Blues
TTITLE10=Buddy Boy Hawkins - Number Three Blues
TTITLE11=Buddy Boy Hawkins - Jailhouse Fire Blues
TTITLE12=Buddy Boy Hawkins - Snatch It Back Blues
TTITLE13=Buddy Boy Hawkins - Workin' On The Railroad
TTITLE14=Buddy Boy Hawkins - Yellow Woman Blues
TTITLE15=Buddy Boy Hawkins - Raggin' The Blues
TTITLE16=Buddy Boy Hawkins - Awful Fix Blues
TTITLE17=Buddy Boy Hawkins - A Rag Blues
TTITLE18=Buddy Boy Hawkins - How Come Mama Blues
TTITLE19=Buddy Boy Hawkins - Snatch It And Grab It
TTITLE20=Buddy Boy Hawkins - Voice Throwin' Blues
EXTD=
EXTT0=
EXTT1=
EXTT2=
EXTT3=
EXTT4=
EXTT5=
EXTT6=
EXTT7=
EXTT8=
EXTT9=
EXTT10=
EXTT11=
EXTT12=
EXTT13=
EXTT14=
EXTT15=
EXTT16=
EXTT17=
EXTT18=
EXTT19=
EXTT20=
PLAYORDER=
